<svg xmlns="http://www.w3.org/2000/svg" xmlns:xlink="http://www.w3.org/1999/xlink" width="142pt" height="404pt" viewBox="0 0 142 404"><g id="graph1" class="graph" transform="scale(1 1) rotate(0) translate(4 400)"><title>Finite_Automata_Graph</title><polygon fill="#fff" stroke="#fff" points="-4 5 -4 -400 139 -400 139 5 -4 5"/><g id="node1" class="node"><title>0</title><ellipse cx="99" cy="-378" fill="none" stroke="#000" rx="18" ry="18"/><text x="99" y="-373.4" font-family="Times Roman,serif" font-size="14" text-anchor="middle">0</text></g><g id="node2" class="node"><title>1</title><ellipse cx="99" cy="-290" fill="none" stroke="#000" rx="18" ry="18"/><text x="99" y="-285.4" font-family="Times Roman,serif" font-size="14" text-anchor="middle">1</text></g><g id="edge2" class="edge"><title>0-&gt;1</title><path fill="none" stroke="#000" d="M99,-359.766C99,-347.849 99,-332.038 99,-318.482"/><polygon fill="#000" stroke="#000" points="102.5 -318.21 99 -308.21 95.5 -318.21 102.5 -318.21"/><text x="103.5" y="-329.4" font-family="Times Roman,serif" font-size="14" text-anchor="middle">a</text></g><g id="node3" class="node"><title>2</title><ellipse cx="18" cy="-202" fill="none" stroke="#000" rx="18" ry="18"/><text x="18" y="-197.4" font-family="Times Roman,serif" font-size="14" text-anchor="middle">2</text></g><g id="edge4" class="edge"><title>1-&gt;2</title><path fill="none" stroke="#000" d="M86.6978,-276.635C73.6144,-262.421 52.7369,-239.739 37.4276,-223.106"/><polygon fill="#000" stroke="#000" points="39.766 -220.478 30.418 -215.491 34.615 -225.219 39.766 -220.478"/><text x="69.5" y="-241.4" font-family="Times Roman,serif" font-size="14" text-anchor="middle">a</text></g><g id="node4" class="node"><title>3</title><ellipse cx="63" cy="-114" fill="none" stroke="#000" rx="18" ry="18"/><text x="63" y="-109.4" font-family="Times Roman,serif" font-size="14" text-anchor="middle">3</text></g><g id="edge6" class="edge"><title>1-&gt;3</title><path fill="none" stroke="#000" d="M95.35,-272.156C89.07,-241.453 76.1769,-178.42 68.703,-141.881"/><polygon fill="#000" stroke="#000" points="72.093 -140.987 66.66 -131.892 65.235 -142.39 72.093 -140.987"/><text x="89" y="-197.4" font-family="Times Roman,serif" font-size="14" text-anchor="middle">b</text></g><g id="node5" class="node"><title>4</title><ellipse cx="63" cy="-22" fill="none" stroke="#000" rx="18" ry="18"/><ellipse cx="63" cy="-22" fill="none" stroke="#000" rx="22" ry="22"/><text x="63" y="-17.4" font-family="Times Roman,serif" font-size="14" text-anchor="middle">4</text></g><g id="edge8" class="edge"><title>1-&gt;4</title><path fill="none" stroke="#000" d="M105.254,-272.876C116.856,-238.418 138.732,-158.65 118,-96 111.61,-76.6908 98.014,-58.3194 85.9392,-44.7117"/><polygon fill="#000" stroke="#000" points="88.429 -42.248 79.072 -37.279 83.287 -46.999 88.429 -42.248"/><text x="130" y="-153.4" font-family="Times Roman,serif" font-size="14" text-anchor="middle">c</text></g><g id="edge10" class="edge"><title>2-&gt;2</title><path fill="none" stroke="#000" d="M34.2903,-209.668C44.3892,-211.517 54,-208.961 54,-202 54,-197.541 50.0557,-194.889 44.5656,-194.045"/><polygon fill="#000" stroke="#000" points="44.189 -190.554 34.29 -194.332 44.384 -197.552 44.189 -190.554"/><text x="58.5" y="-197.4" font-family="Times Roman,serif" font-size="14" text-anchor="middle">a</text></g><g id="edge12" class="edge"><title>2-&gt;3</title><path fill="none" stroke="#000" d="M23.0206,-184.63C26.3346,-174.274 31.1427,-161.037 37,-150 39.4033,-145.471 42.3125,-140.866 45.3025,-136.53"/><polygon fill="#000" stroke="#000" points="48.369 -138.264 51.417 -128.118 42.707 -134.149 48.369 -138.264"/><text x="42" y="-153.4" font-family="Times Roman,serif" font-size="14" text-anchor="middle">b</text></g><g id="edge14" class="edge"><title>2-&gt;4</title><path fill="none" stroke="#000" d="M17.8183,-183.651C18.0414,-162.238 19.779,-125.946 28,-96 32.3293,-80.23 39.8382,-63.6857 46.7935,-50.2495"/><polygon fill="#000" stroke="#000" points="50.073 -51.539 51.707 -41.071 43.902 -48.235 50.073 -51.539"/><text x="32" y="-109.4" font-family="Times Roman,serif" font-size="14" text-anchor="middle">c</text></g><g id="edge16" class="edge"><title>3-&gt;2</title><path fill="none" stroke="#000" d="M59.2539,-131.992C56.6719,-142.323 52.6719,-155.323 47,-166 44.2703,-171.139 40.7608,-176.254 37.1321,-180.947"/><polygon fill="#000" stroke="#000" points="34.275 -178.91 30.614 -188.853 39.676 -183.363 34.275 -178.91"/><text x="57.5" y="-153.4" font-family="Times Roman,serif" font-size="14" text-anchor="middle">a</text></g><g id="edge18" class="edge"><title>3-&gt;3</title><path fill="none" stroke="#000" d="M79.2903,-121.668C89.3892,-123.517 99,-120.961 99,-114 99,-109.541 95.0557,-106.889 89.5656,-106.045"/><polygon fill="#000" stroke="#000" points="89.189 -102.554 79.29 -106.332 89.384 -109.552 89.189 -102.554"/><text x="104" y="-109.4" font-family="Times Roman,serif" font-size="14" text-anchor="middle">b</text></g><g id="edge20" class="edge"><title>3-&gt;4</title><path fill="none" stroke="#000" d="M63,-95.8238C63,-83.9726 63,-68.1746 63,-54.2345"/><polygon fill="#000" stroke="#000" points="66.5 -54.033 63 -44.033 59.5 -54.033 66.5 -54.033"/><text x="67" y="-65.4" font-family="Times Roman,serif" font-size="14" text-anchor="middle">c</text></g></g></svg>